<?xml version="1.0" standalone="no"?>
<!DOCTYPE svg PUBLIC "-//W3C//DTD SVG 20010904//EN"
 "http://www.w3.org/TR/2001/REC-SVG-20010904/DTD/svg10.dtd">
<svg version="1.0" xmlns="http://www.w3.org/2000/svg"
 width="200.000000pt" height="200.000000pt" viewBox="0 0 200.000000 200.000000"
 preserveAspectRatio="xMidYMid meet">
<metadata>
Created by potrace 1.16, written by Peter Selinger 2001-2019
</metadata>
<g transform="translate(0.000000,200.000000) scale(0.100000,-0.100000)"
fill="#000000" stroke="none">
<path d="M1434 1893 c8 -64 23 -251 25 -286 0 -16 -3 -26 -9 -22 -6 3 -11 16
-11 28 -1 19 -2 19 -6 3 -6 -21 82 -116 107 -115 10 0 9 3 -5 9 -11 4 -33 23
-50 41 l-30 34 35 -32 c27 -25 45 -33 73 -33 31 0 37 -3 37 -21 0 -12 8 -23
19 -26 20 -5 20 -11 21 -135 1 -73 -1 -79 -40 -140 -28 -43 -47 -63 -60 -62
-11 1 -17 -3 -14 -7 3 -5 10 -6 16 -3 14 9 9 -1 -36 -74 -21 -34 -42 -62 -45
-62 -4 0 -8 26 -9 58 -5 133 -45 237 -102 267 -52 27 -533 40 -775 21 -53 -4
-73 -3 -60 3 19 9 19 10 -2 10 -13 1 -23 -5 -23 -12 0 -8 -11 -19 -25 -25 -62
-28 -100 -143 -107 -323 -5 -106 0 -95 -114 -269 -39 -61 -60 -85 -74 -84 -11
1 -17 -3 -14 -7 3 -5 10 -7 15 -4 14 9 11 -3 -9 -33 -125 -184 -128 -194 -62
-263 37 -39 42 -53 8 -22 -10 9 -18 12 -18 7 1 -13 50 -47 50 -34 0 5 0 12 0
15 0 3 22 40 50 83 27 42 73 114 101 160 29 45 55 85 59 87 4 3 8 -30 9 -73 4
-210 47 -322 130 -338 17 -4 29 -11 28 -17 -1 -7 9 -13 23 -14 18 -2 20 -1 8
5 -10 4 157 7 369 7 213 0 374 -3 357 -6 l-29 -7 33 -1 c22 -1 32 4 32 14 0 8
5 15 11 15 5 0 8 -4 4 -9 -3 -5 -1 -12 5 -16 5 -3 10 -1 10 5 0 7 7 9 16 6 10
-4 13 -2 8 6 -5 7 -2 9 9 5 9 -3 21 1 29 11 12 15 11 16 -4 3 -15 -11 -18 -11
-18 0 0 10 -3 10 -12 1 -7 -7 -16 -12 -21 -12 -5 0 5 12 22 26 18 14 37 36 43
48 23 42 38 144 44 296 7 153 7 155 38 200 18 25 49 73 70 107 20 35 39 63 40
63 2 0 3 -14 4 -31 0 -17 4 -34 8 -38 4 -3 4 15 2 42 -3 26 -1 50 4 53 6 4 7
-70 3 -197 -12 -340 -13 -309 13 -309 14 0 22 6 22 18 0 9 2 44 4 77 3 33 8
160 11 283 l8 223 39 61 c22 34 37 68 35 77 -3 9 -8 25 -12 36 -7 20 -6 20 9
1 21 -26 20 -52 -5 -95 -11 -20 -14 -28 -6 -19 8 10 18 14 22 10 5 -4 5 -1 1
6 -4 6 -3 12 2 12 6 0 8 19 6 43 -5 62 -6 65 -23 62 -9 -1 -27 9 -40 23 -24
27 -24 22 -3 142 l6 35 7 -35 6 -35 2 32 c0 17 5 34 11 38 5 3 7 12 3 21 -4
12 2 13 35 8 33 -5 47 -2 72 16 17 12 38 23 48 24 12 2 17 13 18 42 l2 39 -8
-40 -7 -40 -1 40 c-1 22 9 99 22 170 13 72 22 132 20 134 -2 2 -36 4 -76 5
-40 0 -76 5 -79 9 -4 5 -51 10 -105 10 -55 1 -101 5 -104 9 -3 4 -35 10 -70
14 -36 3 -69 9 -73 11 -4 3 -6 -17 -3 -44z m-387 -937 c0 -8 -5 -14 -11 -13
-6 1 -10 -4 -8 -10 1 -7 -2 -13 -8 -13 -5 0 -10 -10 -9 -22 0 -22 1 -22 9 -3
14 36 35 48 59 33 16 -10 21 -24 23 -63 l2 -50 3 47 c4 47 -11 93 -26 84 -4
-3 -8 1 -8 9 0 37 29 7 46 -47 15 -46 1 -106 -31 -134 -12 -10 -18 -13 -14 -6
5 8 0 12 -16 12 -18 0 -20 -2 -8 -10 8 -5 11 -10 5 -10 -17 1 -44 26 -54 51
-13 34 -6 105 13 135 18 27 33 31 33 10z m-222 -331 c17 -2 66 -7 110 -11 44
-3 91 -7 105 -9 14 -1 46 -3 73 -3 26 -1 47 -7 47 -13 0 -5 -6 -7 -12 -3 -10
6 -10 4 0 -7 14 -15 16 -69 2 -69 -5 0 -7 -7 -3 -16 5 -13 0 -14 -28 -10 -40
7 -204 22 -338 32 -52 4 -106 11 -120 15 -24 8 -24 9 6 6 18 -2 30 0 27 5 -3
4 -16 8 -30 8 -21 0 -24 5 -24 35 0 19 5 35 11 35 5 0 7 5 4 10 -6 10 92 7
170 -5z"/>
</g>
</svg>
